<svg width="33" height="27" viewBox="0 0 33 27" fill="none" xmlns="http://www.w3.org/2000/svg">
<path d="M27.9249 20.1949H12.046C11.5892 20.1949 11.2247 19.9067 11.0416 19.426L5.2017 3.19452H1.0951C0.45681 3.19452 0 2.71372 0 2.04195C0 1.37016 0.45681 0.889374 1.0951 0.889374H5.93229C6.3891 0.889374 6.75361 1.17752 6.93664 1.6583L12.869 17.8898H27.1959L30.2981 9.05288L16.9739 7.03585C16.3357 6.94036 15.9696 6.36408 16.062 5.69064C16.1543 5.01721 16.7002 4.63358 17.34 4.73072L31.9408 7.03585C32.3053 7.13135 32.579 7.32403 32.7621 7.6121C32.9451 7.90028 32.9451 8.28398 32.8528 8.57205L28.9293 19.426C28.7462 19.9067 28.3818 20.1949 27.9249 20.1949ZM18.4336 23.8439C18.4336 25.092 17.4294 26.149 16.2435 26.149C15.0577 26.149 14.0533 25.092 14.0533 23.8439C14.0533 22.5958 15.0577 21.5388 16.2435 21.5388C17.5216 21.5388 18.4336 22.5958 18.4336 23.8439ZM25.8257 23.8439C25.8257 25.092 24.8214 26.149 23.6356 26.149C22.4498 26.149 21.4454 25.092 21.4454 23.8439C21.4454 22.5958 22.4498 21.5388 23.6356 21.5388C24.9137 21.5388 25.8257 22.5958 25.8257 23.8439Z" fill="#0046C0"/>
</svg>
