<svg width="125" height="30" viewBox="0 0 125 30" fill="none" xmlns="http://www.w3.org/2000/svg">
<g clip-path="url(#clip0_10_26)">
<path d="M33.5718 28.2574V0.437073H44.7447C50.5468 0.437073 54.0051 4.01496 54.0051 9.06347C54.0051 14.1121 50.5468 17.6873 44.7447 17.6873H38.8594V28.2574H33.5718ZM38.8594 13.2754H44.5004C47.6002 13.2754 48.8734 11.2877 48.8734 9.06347C48.8734 6.83934 47.6002 4.84902 44.5004 4.84902H38.8594V13.2754Z" fill="#00A1FC"/>
<path d="M53.6699 18.2416C53.6699 12.2785 58.0404 7.90811 64.1594 7.90811C70.2785 7.90811 74.6124 12.2785 74.6124 18.2416C74.6124 24.2048 70.242 28.5752 64.1594 28.5752C58.0767 28.5752 53.6699 24.2022 53.6699 18.2416ZM69.686 18.2416C69.686 14.6248 67.4593 12.12 64.1594 12.12C60.8595 12.12 58.5964 14.6248 58.5964 18.2416C58.5964 21.8585 60.8232 24.3607 64.1594 24.3607C67.4956 24.3607 69.686 21.8585 69.686 18.2416Z" fill="#00A1FC"/>
<path d="M91.1853 2.1853H96.0761V8.22641H101.639V12.3214H96.0761V20.7867C96.0761 22.8134 97.1486 23.8475 98.9755 23.8475H101.639V28.2647H98.4196C94.0463 28.2647 91.1853 25.721 91.1853 21.27V2.1853Z" fill="#00A1FC"/>
<path d="M103.267 18.2416C103.267 12.2785 107.636 7.90811 113.756 7.90811C119.875 7.90811 124.198 12.2785 124.198 18.2416C124.198 24.2048 119.828 28.5752 113.746 28.5752C107.663 28.5752 103.267 24.2022 103.267 18.2416ZM119.282 18.2416C119.282 14.6248 117.056 12.12 113.756 12.12C110.456 12.12 108.193 14.6248 108.193 18.2416C108.193 21.8585 110.42 24.3607 113.756 24.3607C117.092 24.3607 119.282 21.8585 119.282 18.2416Z" fill="#00A1FC"/>
<path d="M89.1512 8.1915V12.8218C89.1512 12.8218 85.6644 12.6372 84.5212 12.8218C83.8274 12.936 82.536 13.4843 82.536 14.8068V28.0427H77.2407V14.1468C77.2407 14.1468 77.2407 8.1915 82.536 8.1915H89.1512Z" fill="#00A1FC"/>
<path fill-rule="evenodd" clip-rule="evenodd" d="M3.59089 4.58035e-05H24.8971C25.373 -0.00235044 25.8446 0.0892963 26.2849 0.269726C26.7252 0.450157 27.1254 0.715807 27.4628 1.05142C27.8001 1.38704 28.0677 1.786 28.2504 2.22538C28.433 2.66476 28.527 3.13589 28.527 3.61171V25.4012C28.527 26.3592 28.1465 27.2778 27.4691 27.9551C26.7919 28.6324 25.8733 29.0129 24.9154 29.0129H3.60908C3.13491 29.0129 2.66538 28.9195 2.22734 28.7379C1.7893 28.5565 1.39133 28.2904 1.05615 27.955C0.72099 27.6196 0.455201 27.2213 0.273981 26.7832C0.0927605 26.345 -0.000339437 25.8754 9.67304e-07 25.4012V3.61171C-0.000697363 2.65722 0.376741 1.74132 1.04972 1.06445C1.7227 0.387575 2.63641 0.0048558 3.59089 4.58035e-05ZM25.2297 15.3389C25.2791 15.409 25.383 15.3545 25.383 15.2687C25.1726 13.6135 23.3199 5.64451 7.2545 9.83558C7.23233 9.84117 7.21317 9.85507 7.20107 9.87448C7.18895 9.89388 7.18483 9.91722 7.18955 9.93951C7.28568 10.3865 7.717 12.6288 7.66763 16.1339C7.66728 16.1482 7.67038 16.1623 7.67666 16.1751C7.68295 16.1878 7.69222 16.199 7.70371 16.2073C7.71518 16.2157 7.72854 16.2213 7.74261 16.2234C7.7567 16.2256 7.77108 16.2243 7.78455 16.2197C9.14869 15.7156 22.3118 11.2647 25.2297 15.3389ZM4.19718 3.2529C4.1833 3.24121 4.17337 3.22555 4.16872 3.20802C4.16406 3.1905 4.16491 3.17196 4.17115 3.15493C4.1774 3.13791 4.18873 3.12322 4.20361 3.11285C4.2185 3.10249 4.23621 3.09695 4.25434 3.097C18.8985 3.097 22.388 7.94547 23.0766 9.29921C23.0865 9.31713 23.0899 9.33785 23.0862 9.35804C23.0824 9.37815 23.0719 9.39633 23.0562 9.40953C23.0406 9.42273 23.0209 9.43007 23.0004 9.43033C22.98 9.43059 22.9601 9.42369 22.9441 9.41093C18.1424 5.60439 7.97514 7.95587 6.90983 8.21571C6.89821 8.21836 6.88617 8.21863 6.87445 8.2165C6.86272 8.21438 6.85155 8.2099 6.84159 8.20335C6.83164 8.1968 6.82312 8.1883 6.81654 8.17836C6.80996 8.16843 6.80545 8.15726 6.8033 8.14554C6.26804 5.264 4.73762 3.7206 4.19718 3.2529ZM19.443 24.3861C19.4632 24.3906 19.4842 24.388 19.5027 24.3788C21.0487 23.4617 25.7257 20.458 25.5516 17.1218C25.3437 13.123 10.9516 15.9005 7.49583 17.9402C7.48325 17.9478 7.47283 17.9585 7.46556 17.9712C7.45828 17.9839 7.45438 17.9983 7.45426 18.013C7.43347 18.5378 7.21001 23.2408 5.13135 26.1379C5.1202 26.1537 5.11448 26.1726 5.11504 26.1918C5.11561 26.211 5.12244 26.2295 5.13449 26.2445C5.14655 26.2595 5.16317 26.2702 5.18183 26.2748C5.20049 26.2795 5.22017 26.278 5.23788 26.2705C7.88817 25.0596 26.0608 16.9061 19.391 24.2412C19.3782 24.2574 19.3714 24.2774 19.3716 24.2981C19.3718 24.3186 19.3789 24.3386 19.3919 24.3546C19.4049 24.3706 19.4229 24.3817 19.443 24.3861Z" fill="#00A1FC"/>
</g>
<defs>
<clipPath id="clip0_10_26">
<rect width="125" height="29.7203" fill="white"/>
</clipPath>
</defs>
</svg>
