<svg width="25" height="27" viewBox="0 0 25 27" fill="none" xmlns="http://www.w3.org/2000/svg">
<path d="M24.9136 13.5192C24.9136 6.57278 19.5136 0.889374 12.9136 0.889374C6.31357 0.889374 0.913574 6.57278 0.913574 13.5192C0.913574 20.4656 6.31357 26.149 12.9136 26.149C15.4473 26.149 17.8473 25.3069 19.7798 23.9032C19.9135 23.8335 19.9798 23.8335 20.1136 23.6928L20.1799 23.623C23.0462 21.3076 24.9136 17.6594 24.9136 13.5192ZM2.51357 13.5192C2.51357 7.48453 7.17986 2.57334 12.9136 2.57334C18.6473 2.57334 23.3136 7.48453 23.3136 13.5192C23.3136 16.9568 21.7798 19.9748 19.4473 22.0088C18.781 21.5878 17.981 21.3773 16.9135 21.3773H16.2473L15.5136 20.3248C16.6473 19.2026 17.4473 17.4477 17.5135 15.8346C18.5798 14.3612 17.9798 11.4142 17.7136 10.3617C18.0473 9.09874 17.6473 7.69502 16.6473 6.85304C15.4473 5.80056 13.6473 5.80056 11.9136 6.85304C9.31357 6.92281 8.11357 7.90552 8.04729 10.1512C7.84729 10.7827 7.181 13.0982 8.18101 15.6939C8.24729 17.3779 9.04732 19.2026 10.2473 20.3248L9.58102 21.3773H8.91472C7.91472 21.3773 7.04843 21.5878 6.381 22.0088C4.04729 20.0446 2.51472 16.9568 2.51472 13.5192H2.51357ZM9.84727 15.4834C9.84727 15.3427 9.84727 15.2729 9.78097 15.1321C8.781 12.8167 9.64732 10.6419 9.64732 10.6419C9.71355 10.5722 9.71355 10.4315 9.71355 10.2908C9.71355 9.37896 9.71355 8.53701 12.1798 8.53701C12.3136 8.53701 12.4462 8.46725 12.5798 8.39629C13.3135 7.90552 13.9798 7.69502 14.5135 7.69502C14.9798 7.69502 15.3136 7.83576 15.6473 8.11602C16.181 8.53701 16.381 9.30926 16.1136 10.0105C16.0473 10.1512 16.0473 10.3617 16.1136 10.5722C16.5799 12.2562 16.7136 14.4309 16.2473 14.8519C16.0473 14.9927 15.981 15.2729 15.981 15.4834C15.981 17.5186 14.381 19.8341 12.9147 19.8341C11.4484 19.8341 9.8484 17.5186 9.8484 15.4834H9.84727ZM7.97986 23.202C8.24614 23.1323 8.57985 23.1323 8.9136 23.1323H9.97987C10.2461 23.1323 10.4461 22.9915 10.6462 22.781L11.6461 21.3076C12.0461 21.4483 12.4462 21.5878 12.9124 21.5878C13.3787 21.5878 13.7787 21.518 14.1787 21.3076L15.245 22.781C15.3787 22.9915 15.645 23.1323 15.9113 23.1323H16.9776C17.3113 23.1323 17.5776 23.202 17.8438 23.202C16.3776 24.044 14.7101 24.5347 12.9101 24.5347C11.1101 24.465 9.44385 23.973 7.97643 23.202H7.97986Z" fill="#0046C0"/>
</svg>
